<svg width="449" height="448" viewBox="0 0 449 448" fill="none" xmlns="http://www.w3.org/2000/svg">
<path fill-rule="evenodd" clip-rule="evenodd" d="M24 0.587012C14.892 2.91301 6.744 9.57801 2.476 18.197L0 23.197V223.697V424.197L2.257 428.728C5.807 435.853 9.843 440.063 16.675 443.768L23 447.197H47.5H72L78.301 443.78C85.3 439.985 88.314 436.871 92.305 429.304L95 424.197V223.697V23.197L91.571 16.872C87.86 10.028 83.635 5.98301 76.531 2.47201C72.29 0.377014 70.558 0.220014 49.5 0.0270143C37.125 -0.0859857 25.65 0.166012 24 0.587012ZM152 0.587012C142.892 2.91301 134.744 9.57801 130.476 18.197L128 23.197V223.697V424.197L130.257 428.728C133.807 435.853 137.843 440.063 144.675 443.768L151 447.197H175.5H200L206.301 443.78C213.3 439.985 216.314 436.871 220.305 429.304L223 424.197V223.697V23.197L219.571 16.872C215.86 10.028 211.635 5.98301 204.531 2.47201C200.29 0.377014 198.558 0.220014 177.5 0.0270143C165.125 -0.0859857 153.65 0.166012 152 0.587012ZM309.814 3.18901C296.357 6.13901 273.779 12.939 269.887 15.215C261.24 20.272 255.6 29.561 254.755 40.136C254.309 45.728 258.112 60.543 303.931 231.697C331.244 333.722 354.495 419.975 355.601 423.37C358.266 431.551 363.782 437.726 372.073 441.807C381.574 446.485 387.28 446.183 410.427 439.778C420.562 436.974 430.738 433.576 433.04 432.226C441.768 427.112 447.401 417.86 448.241 407.258C448.685 401.668 444.791 386.526 398.123 212.33C370.293 108.453 346.52 21.455 345.295 19C341.12 10.641 330.559 3.55601 320.5 2.36601C318.025 2.07301 313.216 2.44401 309.814 3.18901Z" fill="#001E21"/>
</svg>
